HIERARCHY
ROOT Pelvis
{
	OFFSET 0.000000 0.000000 0.000000
	CHANNELS 6 Xposition Yposition Zposition Xrotation Yrotation Zrotation
	JOINT LeftUpLeg_virtual
	{
		OFFSET 0.000000 0.000000 0.000000
		CHANNELS 3 Xrotation Yrotation Zrotation
		JOINT LeftUpLeg
		{
			OFFSET 18.735201 -5.666702 -4.541200
			CHANNELS 3 Xrotation Yrotation Zrotation
			JOINT LeftLeg
			{
				OFFSET -0.021200 -31.938179 0.493100
				CHANNELS 3 Xrotation Yrotation Zrotation
				JOINT LeftFoot
				{
					OFFSET 0.021200 -31.938179 -4.336299
					CHANNELS 3 Xrotation Yrotation Zrotation
					JOINT LeftToeBase
					{
						OFFSET 0.943001 -26.722000 15.023500
						CHANNELS 3 Xrotation Yrotation Zrotation
						End Site
						{
							OFFSET 0 0 0
						}
					}
				}
			}
		}
	}
	JOINT RightUpLeg_virtual
	{
		OFFSET 0.000000 0.000000 0.000000
		CHANNELS 3 Xrotation Yrotation Zrotation
		JOINT RightUpLeg
		{
			OFFSET -18.735201 -5.666702 -4.541200
			CHANNELS 3 Xrotation Yrotation Zrotation
			JOINT RightLeg
			{
				OFFSET 0.018946 -31.938133 0.493100
				CHANNELS 3 Xrotation Yrotation Zrotation
				JOINT RightFoot
				{
					OFFSET -0.018946 -31.938126 -4.336299
					CHANNELS 3 Xrotation Yrotation Zrotation
					JOINT RightToeBase
					{
						OFFSET -0.943001 -26.722004 15.023500
						CHANNELS 3 Xrotation Yrotation Zrotation
						End Site
						{
							OFFSET 0 0 0
						}
					}
				}
			}
		}
	}
	JOINT Hips_virtual
	{
		OFFSET 0.000000 0.000000 0.000000
		CHANNELS 3 Xrotation Yrotation Zrotation
		JOINT Hips
		{
			OFFSET -0.000000 -0.000000 -0.000000
			CHANNELS 3 Xrotation Yrotation Zrotation
			JOINT Spine
			{
				OFFSET 0.000000 10.199997 -0.299500
				CHANNELS 3 Xrotation Yrotation Zrotation
				JOINT Spine1
				{
					OFFSET 0.000000 11.900002 -1.516600
					CHANNELS 3 Xrotation Yrotation Zrotation
					JOINT Spine2
					{
						OFFSET 0.000000 13.600006 -2.842500
						CHANNELS 3 Xrotation Yrotation Zrotation
						JOINT Neck_virtual
						{
							OFFSET 0.000000 0.000000 0.000000
							CHANNELS 3 Xrotation Yrotation Zrotation
							JOINT Neck
							{
								OFFSET 0.000000 9.624100 -2.890100
								CHANNELS 3 Xrotation Yrotation Zrotation
								JOINT Head
								{
									OFFSET 0.000000 14.068802 -1.351900
									CHANNELS 3 Xrotation Yrotation Zrotation
									End Site
									{
										OFFSET 0 0 0
									}
								}
							}
						}
						JOINT LeftShoulder_virtual
						{
							OFFSET 0.000000 0.000000 0.000000
							CHANNELS 3 Xrotation Yrotation Zrotation
							JOINT LeftShoulder
							{
								OFFSET 15.263000 10.923401 -0.547700
								CHANNELS 3 Xrotation Yrotation Zrotation
								JOINT LeftArm
								{
									OFFSET 25.438599 -2.830597 -13.032500
									CHANNELS 3 Xrotation Yrotation Zrotation
									JOINT LeftForeArm
									{
										OFFSET 29.960503 0.000000 0.000000
										CHANNELS 3 Xrotation Yrotation Zrotation
										JOINT LeftHand
										{
											OFFSET 27.849251 0.000000 0.000000
											CHANNELS 3 Xrotation Yrotation Zrotation
											End Site
											{
												OFFSET 0 0 0
											}
										}
									}
								}
							}
						}
						JOINT RightShoulder_virtual
						{
							OFFSET 0.000000 0.000000 0.000000
							CHANNELS 3 Xrotation Yrotation Zrotation
							JOINT RightShoulder
							{
								OFFSET -15.263000 10.923401 -0.547700
								CHANNELS 3 Xrotation Yrotation Zrotation
								JOINT RightArm
								{
									OFFSET -25.438599 -2.830597 -13.032500
									CHANNELS 3 Xrotation Yrotation Zrotation
									JOINT RightForeArm
									{
										OFFSET -29.960503 0.000000 0.000000
										CHANNELS 3 Xrotation Yrotation Zrotation
										JOINT RightHand
										{
											OFFSET -27.849251 0.000000 0.000000
											CHANNELS 3 Xrotation Yrotation Zrotation
											End Site
											{
												OFFSET 0 0 0
											}
										}
									}
								}
							}
						}
					}
				}
			}
		}
	}
}
MOTION
Frames: 10
Frame Time: 0.03333333
10.864136 83.394081 4.276958 0.000000 0.000000 0.000000 9.503189 -0.425004 -10.235931 -58.384846 -12.955399 29.782295 53.369066 -4.165311 -2.379771 -0.779122 2.243380 -15.268456 0.000000 0.000000 0.000000 9.503189 -0.425004 -10.235931 -38.720520 -26.666107 3.600404 52.580729 5.699288 -0.842719 -23.968508 -19.669620 -8.154781 0.000000 0.000000 0.000000 9.503189 -0.425004 -10.235931 -0.000001 -0.000000 0.000001 8.486002 -3.514165 -7.279832 6.795707 -2.703226 -6.539372 0.000000 0.000000 0.000000 6.822731 -2.529060 -6.561665 -2.700826 -0.126732 -2.498664 0.000000 0.000000 0.000000 6.822731 -2.529060 -6.561665 0.657390 -5.474594 -9.273251 -31.650864 6.573777 -19.060517 0.000014 -57.717277 0.000014 0.000000 0.000000 0.000000 6.822731 -2.529060 -6.561665 0.361038 -0.787753 2.746810 26.141086 -12.666227 76.530822 -0.000020 79.226820 0.000025 0.000000 0.000000 0.000000 
10.748257 82.819122 3.252968 0.000000 0.000000 0.000000 8.974594 -2.900723 -9.654092 -58.141295 -13.606404 30.473671 55.435328 -2.346234 -2.429490 -1.441501 2.322556 -15.661093 0.000000 0.000000 0.000000 8.974594 -2.900723 -9.654092 -41.207255 -25.151680 3.974135 54.572470 6.086934 -0.861398 -23.281747 -19.812367 -8.950265 0.000000 0.000000 0.000000 8.974594 -2.900723 -9.654092 0.000000 0.000000 0.000000 9.423528 -2.800490 -6.704640 7.403575 -2.428329 -6.253433 0.000000 0.000000 0.000000 7.422360 -2.272615 -6.260114 -2.711330 -0.111766 -2.448373 0.000000 0.000000 0.000000 7.422360 -2.272615 -6.260114 0.598235 -5.646886 -10.458235 -29.130053 12.344775 -22.295081 0.000010 -55.646965 0.000014 0.000000 0.000000 0.000000 7.422360 -2.272615 -6.260114 0.490283 0.533998 3.685337 21.315675 -9.569344 74.194316 0.000011 75.301347 0.000013 0.000000 0.000000 0.000000 
10.531877 82.458138 2.640453 0.000000 0.000000 0.000000 8.642903 -4.769482 -9.157206 -58.333231 -13.790952 30.576838 57.606942 -0.679913 -2.431869 -2.302445 2.287935 -14.766852 0.000000 0.000000 0.000000 8.642903 -4.769482 -9.157206 -42.764211 -23.679897 4.679184 55.747212 6.032265 -0.878568 -22.760617 -20.012871 -9.423050 0.000000 0.000000 0.000000 8.642903 -4.769482 -9.157206 0.000000 0.000000 0.000000 10.006477 -2.356502 -6.323798 7.767371 -2.138698 -6.024966 0.000000 0.000000 0.000000 7.779424 -1.971605 -6.025091 -2.605145 -0.091137 -2.349926 0.000000 0.000000 0.000000 7.779424 -1.971605 -6.025091 0.524203 -5.743401 -11.652804 -26.668457 15.753010 -26.299712 0.000004 -52.301965 -0.000003 0.000000 0.000000 0.000000 7.779424 -1.971605 -6.025091 0.591542 1.635290 4.805949 18.029323 -7.082851 72.202503 0.000007 72.356838 -0.000021 0.000000 0.000000 0.000000 
10.214477 82.311768 2.067738 0.000000 0.000000 0.000000 8.437725 -5.546429 -8.895345 -58.976320 -13.513458 30.372970 58.701726 0.004192 -2.402077 -2.456920 2.107916 -13.215520 0.000000 0.000000 0.000000 8.437725 -5.546429 -8.895345 -43.590267 -22.209740 5.700293 56.063432 4.960223 -0.891846 -22.180372 -20.325690 -9.401434 0.000000 0.000000 0.000000 8.437725 -5.546429 -8.895345 0.000000 0.000000 -0.000001 10.125071 -2.181308 -6.164685 7.802027 -1.932132 -5.835046 0.000000 0.000000 0.000000 7.811553 -1.777858 -5.889258 -2.320727 -0.059892 -2.231830 0.000000 0.000000 0.000000 7.811553 -1.777858 -5.889258 0.459902 -5.814607 -12.820952 -23.955765 18.174990 -30.086929 -0.000009 -49.337489 -0.000019 0.000000 0.000000 0.000000 7.811553 -1.777858 -5.889258 0.591473 2.416965 6.076049 14.609030 -4.913911 71.035511 0.000019 68.647424 -0.000022 0.000000 0.000000 0.000000 
9.792617 82.426430 1.571762 0.000000 0.000000 0.000000 8.096649 -6.140646 -8.671244 -58.822580 -13.152721 30.184505 58.940421 0.613288 -2.388627 -2.590616 1.971419 -12.106556 0.000000 0.000000 0.000000 8.096649 -6.140646 -8.671244 -43.619770 -21.098050 6.714860 55.540059 3.674515 -0.899880 -21.333488 -20.100512 -9.297772 0.000000 0.000000 0.000000 8.096649 -6.140646 -8.671244 0.000000 -0.000001 0.000000 10.026353 -2.109080 -6.053577 7.694633 -1.844072 -5.695971 0.000000 0.000000 0.000000 7.704307 -1.668612 -5.799785 -2.024007 -0.030478 -2.065158 0.000000 0.000000 0.000000 7.704307 -1.668612 -5.799785 0.436686 -5.873332 -13.840770 -21.216851 19.677997 -33.523849 -0.000010 -46.002014 -0.000015 0.000000 0.000000 0.000000 7.704307 -1.668612 -5.799785 0.628600 3.064499 7.328857 10.660728 -1.748667 69.787874 -0.000004 64.023557 0.000004 0.000000 0.000000 0.000000 
9.322662 82.766571 1.161739 0.000000 0.000000 0.000000 7.658816 -6.953851 -8.461055 -57.814198 -12.739910 30.251820 58.588236 1.399220 -2.389417 -2.740546 1.854957 -11.436873 0.000000 0.000000 0.000000 7.658816 -6.953851 -8.461055 -42.994576 -20.295870 7.721134 54.232440 2.453948 -0.900673 -20.159028 -19.265908 -9.239396 0.000000 0.000000 0.000000 7.658816 -6.953851 -8.461055 0.000001 0.000000 0.000000 9.692607 -2.082397 -5.985377 7.437454 -1.791785 -5.611870 0.000000 0.000000 0.000000 7.447830 -1.584538 -5.709140 -1.844703 0.002381 -1.905397 0.000000 0.000000 0.000000 7.447830 -1.584538 -5.709140 0.416265 -5.889156 -14.548954 -18.858951 19.921529 -37.294978 0.000010 -43.194430 0.000012 0.000000 0.000000 0.000000 7.447830 -1.584538 -5.709140 0.643600 3.846709 8.530064 7.588284 1.664683 67.772661 0.000004 60.162307 0.000014 0.000000 0.000000 0.000000 
8.848827 83.284813 0.837135 0.000000 0.000000 0.000000 7.034769 -7.825868 -8.279975 -56.208465 -12.138715 30.369729 58.034956 2.597056 -2.406441 -2.961804 1.788872 -10.913724 0.000000 0.000000 0.000000 7.034769 -7.825868 -8.279975 -41.756075 -19.618680 8.635739 52.349541 0.753011 -0.896618 -18.732965 -17.580304 -8.972855 0.000000 0.000000 0.000000 7.034769 -7.825868 -8.279975 -0.000000 -0.000001 -0.000001 9.058544 -2.088505 -5.957525 6.966939 -1.713075 -5.582115 0.000000 0.000000 0.000000 6.976321 -1.498224 -5.646739 -1.548416 0.036585 -1.717265 0.000000 0.000000 0.000000 6.976321 -1.498224 -5.646739 0.431747 -5.792489 -14.912622 -18.384383 18.582484 -40.300739 -0.000019 -40.185336 -0.000037 0.000000 0.000000 0.000000 6.976321 -1.498224 -5.646739 0.683333 4.596232 9.475072 5.222523 4.892651 66.077880 -0.000007 57.905606 0.000018 0.000000 0.000000 0.000000 
8.284204 84.089371 0.464573 0.000000 0.000000 0.000000 5.932594 -8.513436 -8.173556 -53.765750 -11.255062 30.419480 56.807790 3.529509 -2.412515 -3.078768 2.138772 -10.110289 0.000000 0.000000 0.000000 5.932594 -8.513436 -8.173556 -39.423063 -19.072122 9.689822 49.546069 -0.049327 -0.890020 -17.115194 -16.596494 -9.201598 0.000000 0.000000 0.000000 5.932594 -8.513436 -8.173556 -0.000001 -0.000001 -0.000000 8.203604 -2.116649 -5.934597 6.344308 -1.595234 -5.547087 0.000000 0.000000 0.000000 6.352554 -1.429737 -5.576763 -1.198519 0.071114 -1.515121 0.000000 0.000000 0.000000 6.352554 -1.429737 -5.576763 0.466263 -5.644877 -15.104598 -18.801399 16.025222 -42.033517 -0.000001 -37.624029 0.000002 0.000000 0.000000 0.000000 6.352554 -1.429737 -5.576763 0.636295 5.033473 10.150689 4.883868 8.167432 64.777275 -0.000000 57.379955 0.000002 0.000000 0.000000 0.000000 
7.692194 84.988106 0.109653 0.000000 0.000000 0.000000 4.444407 -9.198416 -8.135396 -50.926030 -10.155806 30.302609 55.944717 4.487791 -2.409536 -3.793849 2.833552 -8.910036 0.000000 0.000000 0.000000 4.444407 -9.198416 -8.135396 -36.433380 -18.621491 10.732280 46.411026 -0.203506 -0.879880 -15.470665 -15.972761 -9.701488 0.000000 0.000000 0.000000 4.444407 -9.198416 -8.135396 0.000000 0.000000 0.000000 7.411122 -2.210219 -5.915194 5.781781 -1.564184 -5.482293 0.000000 0.000000 0.000000 5.789567 -1.420084 -5.487933 -0.819166 0.105162 -1.307339 0.000000 0.000000 0.000000 5.789567 -1.420084 -5.487933 0.480392 -5.612242 -15.198559 -19.270349 12.340424 -42.980789 -0.000001 -35.589169 0.000000 0.000000 0.000000 0.000000 5.789567 -1.420084 -5.487933 0.580436 5.083787 10.670690 4.914102 9.377460 63.205567 0.000010 57.379955 0.000001 0.000000 0.000000 0.000000 
7.214252 85.858101 -0.150291 0.000000 0.000000 0.000000 3.157119 -9.713175 -8.084809 -48.540522 -8.836154 29.856806 55.508118 6.045219 -2.390591 -5.046537 2.228250 -7.286290 0.000000 0.000000 0.000000 3.157119 -9.713175 -8.084809 -33.609544 -18.082337 11.583490 43.315612 -0.100200 -0.867559 -13.932210 -15.731331 -10.127476 0.000000 0.000000 0.000000 3.157119 -9.713175 -8.084809 0.000000 0.000000 -0.000001 6.587478 -2.327245 -5.844428 5.210266 -1.672894 -5.345283 0.000000 0.000000 0.000000 5.219026 -1.462057 -5.348264 -0.468209 0.137811 -1.102229 0.000000 0.000000 0.000000 5.219026 -1.462057 -5.348264 0.482046 -5.756446 -15.103765 -20.570418 8.167644 -43.060685 0.000006 -33.731343 0.000001 0.000000 0.000000 0.000000 5.219026 -1.462057 -5.348264 0.552302 5.004966 11.256978 4.970632 10.901599 61.392343 0.000021 57.927374 -0.000010 0.000000 0.000000 0.000000 
